<svg height="18" viewBox="0 0 16 18" width="16" xmlns="http://www.w3.org/2000/svg"><path d="m11.6666667-.75c.205393 0 .4001879.08412383.5405585.23008838l.0654471.0780325 2.3333333 3.2c.0701811.09624829.1160874.20734261.1346542.32387816l.0093402.11800096v11.2c0 1.2393305-.9435949 2.2615241-2.1471518 2.3445553l-.1584038.0054447h-10.88888884c-1.22486998 0-2.21950113-.9705548-2.30026055-2.1896389l-.00529501-.1603611v-11.2c0-.11911805.02836104-.23592982.0820184-.34103048l.06197595-.10084864 2.33333334-3.2c.12101187-.16595914.30375226-.27379142.50439519-.30121372l.10161045-.00690716zm1.5833333 5h-12.5v10.15c0 .4011588.2616618.7320133.60879359.8243199l.09665902.0191337.10010295.0065464h10.88888884c.4062407 0 .7488891-.3202963.7992005-.7424625l.0063551-.1075375zm-3.25 2c.4142136 0 .75.33578644.75.75 0 2.07106781-1.67893219 3.75-3.75 3.75s-3.75-1.67893219-3.75-3.75c0-.41421356.33578644-.75.75-.75s.75.33578644.75.75c0 1.24264069 1.00735931 2.25 2.25 2.25 1.19086399 0 2.16564492-.92516159 2.24480919-2.09595119l.00519081-.15404881c0-.41421356.33578644-.75.75-.75zm1.285-5.5h-8.571l-1.459 2h11.488z" fill="#242424" transform="translate(1 1)"/></svg>