<svg height="25" viewBox="0 0 26 25" width="26" xmlns="http://www.w3.org/2000/svg"><path d="m13 0c6.9035594 0 12.5 5.59644063 12.5 12.5 0 6.9035594-5.5964406 12.5-12.5 12.5-6.90355937 0-12.5-5.5964406-12.5-12.5 0-6.90355937 5.59644063-12.5 12.5-12.5zm1.8292878 5.23269208-.3467479-.0027293-2.9776694.00169536-.8015261.0147992-.6345963.02682331c-.78631734.03764285-1.32168231.15893648-1.79012666.34296819-.48517451.18821425-.89924586.43916658-1.30913467.85323793-.40988881.40988881-.66084114.82396016-.85323793 1.30913467-.16358374.41639498-.28090137.88897023-.32845265 1.53816452l-.04086739.92987834-.01302343.6480318-.00597365 1.0179238.00203106 2.0700257.01191663.8817448.03140124.7941343c.03764285.7863173.15893648 1.3216822.34296819 1.7901266.18821425.4851745.43916658.8992458.85323793 1.3091347.40988881.4098888.82396016.6650236 1.30913467.8532379.41639498.1635837.88897023.2775966 1.53816452.3273511l.60819764.0319716.5673281.0181386 1.2212101.0106458 2.423133-.0028329.8322842-.0138263.6895857-.0284797c.7863173-.0376429 1.3216822-.1589365 1.7943091-.3429682.4851745-.1882143.8950633-.4433491 1.3049522-.8532379.4098888-.4098889.6608411-.8239602.8532379-1.3091347.1598659-.416395.2767705-.8856655.3272134-1.537063l.0259353-.4934393.0248878-.7974257.0102806-1.3060705-.0030429-2.2240349-.0138263-.8322841-.0284797-.68958573c-.0376429-.78631731-.163119-1.32168228-.3429682-1.79012663-.1882143-.48517451-.4433491-.89924586-.8532379-1.30913467-.4098889-.40988881-.8197777-.66084114-1.3091347-.85323793-.4201128-.16358374-.8897964-.27759665-1.5412398-.32735108l-.8213989-.04023804zm.0568726 1.33074695.9574088.02505403.2522174.01065242c.5035777.02342221.8452493.08988276 1.0953107.16208174l.1935428.06242021c.0290645.0103476.0566692.02059482.0830192.03063292.3429682.13384124.589738.29277772.8490554.55209513s.4182539.5060872.5520951.84905539c.0903429.23338566.197625.57518274.2425706 1.16564848l.0278328.5747662.0219076.98279735.0041852.9434847-.003276 2.2088862-.0127776.7939607-.0253077.6666295c-.0334603.7193967-.1547539 1.1083728-.2551349 1.3718728-.1338412.3429682-.2927777.589738-.5520951.8490554s-.5019047.4182539-.8490554.5520951c-.2333856.0903428-.5751827.197625-1.1656485.2425705l-.5747662.0278329-.8410842.0204379-1.0851978.0056549-2.0308815-.0021203-.9719654-.0139333-.6666295-.0253077c-.71939673-.0334603-1.10837285-.154754-1.3718728-.2551349-.34296818-.1338412-.58973798-.2927777-.84905538-.5520951-.25931741-.2593174-.41825389-.5060872-.55209514-.8490554-.09034283-.2333857-.19762496-.5751828-.24257052-1.1656485l-.03100024-.6599147-.01824221-.8456051-.00468321-.9955285.00468321-2.3701809.01824221-.845605.01843589-.45369049c.02342222-.50357768.08988276-.84524928.16208175-1.09531073l.06242021-.1935428c.0103476-.02906446.02059482-.05666922.03063291-.08301921.13384125-.34296819.29277773-.58973798.55209514-.84905539.2593174-.25931741.5060872-.41825389.84905538-.55209513.23338567-.09034284.57518275-.19762497 1.16564849-.24257053l.73399931-.03585271.5421852-.01296999.7844893-.00514224 2.7585116.00422451c.0493521.0004511.0964906.00094025.1417131.00146964zm-1.772524 2.25663458c-2.095452 0-3.78938025 1.69811079-3.78938025 3.78938019 0 2.095452 1.69811075 3.7893802 3.78938025 3.7893802 2.0954519 0 3.7893802-1.6981107 3.7893802-3.7893802 0-2.0954519-1.6939283-3.78938019-3.7893802-3.78938019zm0 1.33004739c1.3593251 0 2.4593328 1.1000077 2.4593328 2.4593328 0 1.3593252-1.1000077 2.4593329-2.4593328 2.4593329-1.3593252 0-2.4593329-1.1000077-2.4593329-2.4593329 0-1.3593251 1.1000077-2.4593328 2.4593329-2.4593328zm3.9399516-2.36731703c-.4893571 0-.8866983.3973412-.8866983.88669824 0 .48935705.3973412.88669824.8866983.88669824.489357 0 .8866982-.39734119.8866982-.88669824 0-.48935704-.3973412-.88669824-.8866982-.88669824z" fill="#242424"/></svg>