<svg height="25" viewBox="0 0 25 25" width="25" xmlns="http://www.w3.org/2000/svg"><path d="m12.5 0c6.9035594 0 12.5 5.59644063 12.5 12.5 0 6.9035594-5.5964406 12.5-12.5 12.5-1.0401094 0-2.0505481-.1270351-3.01664701-.3664362l.24181035-.4090238c.44935906-.7902571.82066636-1.6235885 1.10816996-2.4881383l.8333334-3.0962343c.6453871.9233373 1.710509 1.4581265 2.8333333 1.4225941 3.75 0 6.5-3.5146443 6.5-7.7824268 0-4.2677824-3.3333333-7.2803347-7.6666667-7.2803347-4.3333333 0-8.3333333 3.68200837-8.3333333 7.6150628 0 1.8410041 1 4.1004184 2.5 4.8535564.25.0836821.33333333.0836821.41666667-.167364l.33333333-1.4225941c.02146003-.1184187-.00890379-.2403821-.08333333-.334728-.59613847-.8278799-.91692464-1.8235494-.91666667-2.8451883-.00157825-1.487169.60329338-2.91013365 1.67384852-3.93774011s2.51342308-1.57022992 3.99281818-1.50159046c1.3901914-.09578653 2.7555657.40529242 3.7566529 1.37865477.9385192.9125272 1.4742158 2.1597876 1.4958972 3.4643528l-.0025501.2615949c0 3.4309624-1.6666667 5.7740586-3.9166667 5.7740586-.5678628.0149736-1.1105607-.2352358-1.4693879-.6774573-.3588272-.4422214-.4932454-1.0264951-.3639454-1.5819569.0714285-.3227735.1581632-.6493895.2503644-.9740842l.3746356-1.2748698c.2083333-.7217573.375-1.3912134.375-1.9351464.047425-.4498426-.0982087-.8986742-.4004361-1.2341127s-.7324326-.52572336-1.1828973-.52320951c-1.25 0-2.24999997 1.33891211-2.24999997 3.01255231.00825556.636283.15024289 1.2636412.41666667 1.8410042l-1.5 6.2761506c-.18513008 1.0694208-.2264307 2.1584068-.12322687 3.2378114.36290224.1259188.73139751.235836 1.10657986.3288068l-.23335299.3664362-.83333333-.334728-.03989354-.360515c-4.87671204-1.7031884-8.37677313-6.3452312-8.37677313-11.804757 0-6.90355937 5.59644063-12.5 12.5-12.5z" fill="#242424"/></svg>