<svg height="18" viewBox="0 0 18 18" width="18" xmlns="http://www.w3.org/2000/svg"><path d="m8 .25c4.2802068 0 7.75 3.46979319 7.75 7.75 0 1.86991651-.6622447 3.5851575-1.7649898 4.9239785l3.5453199 3.5456914c.2928932.2928932.2928932.767767 0 1.0606602-.2662666.2662665-.6829303.2904726-.9765418.0726181l-.0841184-.0726181-3.5456914-3.5453199c-1.338821 1.1027451-3.05406199 1.7649898-4.9239785 1.7649898-4.28020681 0-7.75-3.4697932-7.75-7.75 0-4.28020681 3.46979319-7.75 7.75-7.75zm0 1.5c-3.45177969 0-6.25 2.79822031-6.25 6.25 0 3.4517797 2.79822031 6.25 6.25 6.25 3.4517797 0 6.25-2.7982203 6.25-6.25 0-3.45177969-2.7982203-6.25-6.25-6.25z" fill="#242424"/></svg>