<svg height="26" viewBox="0 0 26 26" width="26" xmlns="http://www.w3.org/2000/svg"><path d="m13 0c7.1797017 0 13 5.82029825 13 13 0 7.1797017-5.8202983 13-13 13-7.17970175 0-13-5.8202983-13-13 0-7.17970175 5.82029825-13 13-13zm2.0138894 7.21259443c-1.266905.48355154-2.0971777 1.70661257-2.0789998 3.06254027v.7213536c-2.5747528.066763-5.01194655-1.15995783-6.4921824-3.26773178l-.094756.23931274-.07141401.2024501-.1106468.35319827-.08704825.32116429-.08409553.36409219-.05156311.26422152-.04596053.27976742c-.00709786.04784489-.01389079.09627863-.02034301.14527179l-.03433896.30043636c-.00494642.0511131-.00948064.1027267-.01356691.1548114l-.01885614.3179255c-.08390625 2.1001989.6222842 4.8273572 4.23935725 6.4349452-1.48560786 1.0084281-3.25535561 1.5140703-5.0494752 1.4427072 6.4921824 3.606768 14.427072 0 14.427072-8.2955664-.0006643-.2009304-.0199833-.40136516-.0577083-.59872347.7362158-.72604739 1.2557521-1.64272933 1.5004155-2.64736771-.690779.48725806-1.4556137.8599323-2.2650503 1.10367101-.889891-1.02321282-2.3239344-1.38203104-3.5908395-.8984795z" fill="#242424" fill-rule="evenodd"/></svg>