<svg height="26" viewBox="0 0 26 26" width="26" xmlns="http://www.w3.org/2000/svg"><path d="m13 0c7.1797017 0 13 5.82029825 13 13 0 7.1797017-5.8202983 13-13 13-7.17970175 0-13-5.8202983-13-13 0-7.17970175 5.82029825-13 13-13zm2.4545714 7.07277293-1.7528044-.02792321-1.3726713-.00023011-1.2418388.01614667-1.0190933.02272135-.53568104.0160497-.50561733.01832349-.79752223.03686871-.50626433.03019403-.47362386.03512023c-.07563123.00628457-.14946292.01278991-.2212753.01952377l-.40488447.04320753c-.25142436.03071595-.46350735.06533646-.62218412.10435788-.75332102.19920018-1.3736224.78625177-1.58410944 1.50967027-.09326285.33966962-.16273416.77213471-.2144832 1.22794596l-.0460664.4610211-.03560027.461152-.02648289.4458497-.02557955.6063228-.01692841.7968332.00807723.6691233.01848993.570736.0211741.4437289.03007363.4732672c.00584064.0803369.01211715.1611527.01886205.2420715l.04635039.4837408c.05249158.4789616.1241874.9345628.22211339 1.2856024.21048704.7234086.8197099 1.2999759 1.58410944 1.499181.35916765.0902923.98628235.1577146 1.72256517.2080595l.6541313.0391056.68538161.0315519 1.0380609.0349379 1.2860726.0277116 1.3580187.0143003 1.5195152-.0085297 1.4360638-.0262191.8003375-.0228334.5064705-.0183234.7988029-.0368687.5070221-.030194.4742767-.0351201c.07573-.0062846.149655-.0127899.2215549-.0195238l.4053352-.0432074c.2516726-.0307159.463894-.0653364.6225675-.1043577.7644051-.1992009 1.3736155-.7652862 1.5730254-1.499181.0581204-.2038167.1072737-.4418252.1488434-.6986232l.0568397-.3973639c.0085829-.0679342.0167352-.1365615.0244782-.2056411l.0417221-.4179809.0329406-.4172859.0352155-.5993563.0259037-.6888934.010783-.694142-.0059116-.4935445-.0141011-.4993969-.0273566-.5970689-.0277592-.4301747-.0368867-.4403841-.0473086-.4373134c-.0529511-.43135147-.1234769-.83817671-.2174024-1.16071516-.1994099-.7234185-.8086203-1.29997211-1.5730254-1.48869124-.1579682-.04120354-.3690095-.07778071-.6192142-.11025098l-.4029408-.04569014c-.0714726-.0071233-.1449583-.01400616-.2202397-.02065668l-.471498-.03718007-.5041624-.03199368-.7946689-.03911824-.7759173-.02857738zm-4.2245306 3.36533217 4.6640049 2.5476403-4.6640049 2.5371508z" fill="#242424" fill-rule="evenodd"/></svg>