<svg viewBox="0 0 195.304 62.377" xmlns="http://www.w3.org/2000/svg"><g fill="#242424"><path d="m58.748 56.031a3.516 3.516 0 0 1 -3.493 3.726 3.051 3.051 0 0 1 -2.5-1.15v.99h-1.429v-10.915h1.528v4.643a3.029 3.029 0 0 1 2.386-1.033 3.531 3.531 0 0 1 3.508 3.739zm-1.572-.014a2.19 2.19 0 0 0 -2.183-2.328 2.343 2.343 0 0 0 0 4.671 2.2 2.2 0 0 0 2.183-2.343z"/><path d="m66.942 52.452-3.478 7.96a2.709 2.709 0 0 1 -2.619 1.965 5.088 5.088 0 0 1 -1.179-.146v-1.3c.335.029.612.058.844.058a1.506 1.506 0 0 0 1.557-1.048l.292-.669-2.853-6.825h1.645l2.051 5.2 2.111-5.195z"/><path d="m79.373 48.682v10.918h-1.427v-1.022a3 3 0 0 1 -2.5 1.179 3.741 3.741 0 0 1 0-7.465 3.029 3.029 0 0 1 2.386 1.033v-4.643zm-1.514 7.349a2.136 2.136 0 0 0 -2.154-2.342 2.34 2.34 0 0 0 0 4.671 2.116 2.116 0 0 0 2.154-2.329z"/><path d="m83.405 49.788a1.048 1.048 0 1 1 -1.048-1.018 1.037 1.037 0 0 1 1.048 1.018zm-.291 9.812h-1.528v-7.148h1.528z"/><path d="m92.341 52.452v6.4a3.273 3.273 0 0 1 -3.58 3.522 4.938 4.938 0 0 1 -3.434-1.354l.844-1.062a3.824 3.824 0 0 0 2.5 1.019 1.911 1.911 0 0 0 2.139-2.038v-.51a3.1 3.1 0 0 1 -2.41 1.022 3.581 3.581 0 0 1 0-7.159 3.01 3.01 0 0 1 2.531 1.179v-1.019zm-1.513 3.405a2.038 2.038 0 0 0 -2.155-2.2 2.226 2.226 0 0 0 0 4.452 2.079 2.079 0 0 0 2.155-2.252z"/><path d="m96.373 49.788a1.048 1.048 0 1 1 -1.048-1.018 1.036 1.036 0 0 1 1.048 1.018zm-.29 9.809h-1.528v-7.145h1.528z"/><path d="m102.544 58.3v1.3a5.574 5.574 0 0 1 -1.265.16c-1.586 0-2.634-.756-2.634-2.488v-3.497h-1.165v-1.323h1.165v-1.878h1.542v1.878h2.125v1.323h-2.125v3.363c0 .945.523 1.237 1.412 1.237a8.52 8.52 0 0 0 .945-.075z"/><path d="m109.763 55.275v4.325h-1.426v-.8a2.861 2.861 0 0 1 -2.285.961c-1.5 0-2.488-.83-2.488-2.066 0-1.252 1.033-2.038 2.634-2.038h2.023v-.465a1.381 1.381 0 0 0 -1.528-1.528 2.485 2.485 0 0 0 -1.979 1.062l-.889-.9a3.537 3.537 0 0 1 3.013-1.528 2.715 2.715 0 0 1 2.925 2.977zm-1.542 1.615v-.13h-1.834c-.816 0-1.266.29-1.266.873 0 .625.553.945 1.251.945a1.756 1.756 0 0 0 1.849-1.688z"/><path d="m113.418 59.6h-1.528v-10.918h1.528z"/><path d="m117.624 58.636a1.1 1.1 0 0 1 -1.121 1.121 1.11 1.11 0 0 1 -1.149-1.121 1.122 1.122 0 0 1 1.146-1.136 1.107 1.107 0 0 1 1.124 1.136z"/><path d="m130.285 55.129v4.471h-1.543v-4.252a1.472 1.472 0 0 0 -1.484-1.659 1.525 1.525 0 0 0 -1.572 1.586v4.325h-1.527v-4.252a1.491 1.491 0 0 0 -1.5-1.659 1.536 1.536 0 0 0 -1.571 1.659v4.252h-1.528v-7.148h1.426v.669a2.771 2.771 0 0 1 2.066-.829 2.411 2.411 0 0 1 2.169 1.12 3.027 3.027 0 0 1 2.416-1.12 2.559 2.559 0 0 1 2.648 2.837z"/><path d="m138.088 55.275v4.325h-1.425v-.8a2.863 2.863 0 0 1 -2.286.961c-1.5 0-2.488-.83-2.488-2.066 0-1.252 1.033-2.038 2.634-2.038h2.023v-.465a1.381 1.381 0 0 0 -1.528-1.528 2.485 2.485 0 0 0 -1.979 1.062l-.888-.9a3.534 3.534 0 0 1 3.012-1.528 2.715 2.715 0 0 1 2.925 2.977zm-1.542 1.615v-.13h-1.834c-.815 0-1.266.29-1.266.873 0 .625.553.945 1.251.945a1.756 1.756 0 0 0 1.849-1.688z"/><path d="m146.457 55.129v4.471h-1.529v-4.267a1.525 1.525 0 0 0 -1.557-1.659 1.582 1.582 0 0 0 -1.629 1.659v4.267h-1.528v-7.148h1.426v.7a2.855 2.855 0 0 1 2.139-.858 2.581 2.581 0 0 1 2.678 2.835z"/><path d="m154.739 56.6a3.115 3.115 0 1 1 -6.229 0v-4.148h1.514v4.263a1.555 1.555 0 0 0 1.615 1.631 1.537 1.537 0 0 0 1.572-1.631v-4.263h1.528z"/><path d="m158.669 51.142v1.31h1.689v1.323h-1.689v5.825h-1.527v-5.825h-1.019v-1.323h1.019v-1.441a2.27 2.27 0 0 1 2.546-2.489 3.175 3.175 0 0 1 .99.132v1.294a4.832 4.832 0 0 0 -.612-.043c-.873 0-1.397.295-1.397 1.237z"/><path d="m167.242 55.275v4.325h-1.425v-.8a2.863 2.863 0 0 1 -2.286.961c-1.5 0-2.488-.83-2.488-2.066 0-1.252 1.033-2.038 2.634-2.038h2.023v-.465a1.381 1.381 0 0 0 -1.528-1.528 2.485 2.485 0 0 0 -1.979 1.062l-.888-.9a3.534 3.534 0 0 1 3.012-1.528 2.715 2.715 0 0 1 2.925 2.977zm-1.542 1.615v-.13h-1.834c-.815 0-1.266.29-1.266.873 0 .625.553.945 1.251.945a1.756 1.756 0 0 0 1.849-1.688z"/><path d="m169.368 48.682h1.532v10.918h-1.528zm6.5 10.915h-1.833l-3.1-4.016 2.794-3.129h1.892l-2.878 3.148z"/><path d="m181.374 58.3v1.3a5.574 5.574 0 0 1 -1.265.16c-1.586 0-2.634-.756-2.634-2.488v-3.497h-1.165v-1.323h1.165v-1.878h1.543v1.878h2.124v1.323h-2.124v3.363c0 .945.523 1.237 1.411 1.237a8.52 8.52 0 0 0 .945-.075z"/><path d="m189.075 56.6a3.115 3.115 0 1 1 -6.229 0v-4.148h1.513v4.263a1.556 1.556 0 0 0 1.616 1.631 1.537 1.537 0 0 0 1.572-1.631v-4.263h1.528z"/><path d="m195.3 52.452v1.353h-.465a1.915 1.915 0 0 0 -2.095 1.979v3.816h-1.528v-7.148h1.426v.931a2.6 2.6 0 0 1 2.081-1 2.075 2.075 0 0 1 .581.069z"/></g><g fill="#0db669"><path d="m73.1 22.479h-1l-8.6-21.108a.906.906 0 0 0 -.839-.564h-10.429a.906.906 0 0 0 -.906.906v36.774a.906.906 0 0 0 .906.906h6.116a.907.907 0 0 0 .907-.906v-27.987a.139.139 0 0 1 .268-.052l8.251 20.117a1.625 1.625 0 0 0 1.5 1.009h6.064a1.625 1.625 0 0 0 1.505-1.012l8.3-20.353a.139.139 0 0 1 .268.053v28.225a.906.906 0 0 0 .906.906h6.751a.906.906 0 0 0 .906-.906v-36.774a.906.906 0 0 0 -.906-.906h-10.631a.907.907 0 0 0 -.841.568z"/><path d="m151.432 9.529h-.37a10.333 10.333 0 0 0 -5.655 1.479 8.8 8.8 0 0 0 -3.462 4.441 15.357 15.357 0 0 0 -.661 2.381v-6.5a.906.906 0 0 0 -.906-.906h-4.953a.907.907 0 0 0 -.907.906v27.157a.907.907 0 0 0 .907.906h6.7a.906.906 0 0 0 .906-.906v-15.955a5.339 5.339 0 0 1 1.454-3.912 5.132 5.132 0 0 1 3.832-1.48 4.765 4.765 0 0 1 3.674 1.453 5.343 5.343 0 0 1 1.348 3.779v16.115a.906.906 0 0 0 .906.906h6.7a.906.906 0 0 0 .906-.906v-15.638q0-6.713-2.668-10.017t-7.751-3.303z"/><path d="m187.7 10.427a.906.906 0 0 0 -.906.906v16.115a5.269 5.269 0 0 1 -1.4 3.858 4.919 4.919 0 0 1 -3.674 1.427 4.68 4.68 0 0 1 -3.541-1.374 5.119 5.119 0 0 1 -1.321-3.7v-16.326a.906.906 0 0 0 -.906-.906h-6.7a.907.907 0 0 0 -.907.906v15.9q0 6.555 2.722 9.831a9.439 9.439 0 0 0 7.691 3.277h.37a9.926 9.926 0 0 0 5.549-1.453 8.728 8.728 0 0 0 3.333-4.388 15.076 15.076 0 0 0 .582-2.04v6.024a.906.906 0 0 0 .906.906h4.9a.906.906 0 0 0 .906-.906v-27.151a.906.906 0 0 0 -.906-.906z"/><path d="m21.772 1.144a3.725 3.725 0 0 0 -5.372 0c-4.74 4.916-16.923 21.294-16.383 37.822a26.36 26.36 0 0 0 8.9 19.28 15.043 15.043 0 0 0 20.33 0 26.353 26.353 0 0 0 8.9-19.28c.553-16.528-11.635-32.906-16.375-37.822zm-.689 21.321 6.632-6.632a.448.448 0 0 1 .709.1 64.56 64.56 0 0 1 2.965 6.143 1.241 1.241 0 0 1 -.271 1.352l-9.5 9.5a.544.544 0 0 1 -.929-.384v-9.122a1.353 1.353 0 0 1 .394-.957zm-4.525 10.5-9.513-9.515a1.24 1.24 0 0 1 -.272-1.35 64.343 64.343 0 0 1 2.975-6.167.448.448 0 0 1 .709-.1l6.633 6.633a1.348 1.348 0 0 1 .4.956v9.156a.544.544 0 0 1 -.932.386zm.928 5.952v8.143a.5.5 0 0 1 -.859.356l-12.758-12.758a1.248 1.248 0 0 1 -.358-1.046 41.989 41.989 0 0 1 1.517-6.722.451.451 0 0 1 .748-.182l11.358 11.357a1.207 1.207 0 0 1 .352.851zm3.553-.886 11.349-11.35a.452.452 0 0 1 .748.183 41.913 41.913 0 0 1 1.525 6.752 1.228 1.228 0 0 1 -.352 1.035l-12.764 12.764a.5.5 0 0 1 -.859-.356v-8.178a1.2 1.2 0 0 1 .353-.851zm5.038-25.086-4.763 4.764a.368.368 0 0 1 -.628-.26v-11.725a.382.382 0 0 1 .672-.249 62.825 62.825 0 0 1 4.811 6.634.676.676 0 0 1 -.092.835zm-8.591-7.22v11.724a.367.367 0 0 1 -.627.26l-4.759-4.764a.676.676 0 0 1 -.1-.836 62.681 62.681 0 0 1 4.812-6.634.381.381 0 0 1 .674.249zm-14.258 33.458.444-.2 13.479 13.483a1.144 1.144 0 0 1 .335.809v4.949a.55.55 0 0 1 -.642.545 11.874 11.874 0 0 1 -5.769-2.89 23.237 23.237 0 0 1 -7.847-16.696zm23.872 16.696a11.861 11.861 0 0 1 -5.769 2.89.55.55 0 0 1 -.642-.545v-4.95a1.144 1.144 0 0 1 .335-.809l13.476-13.478.444.2a23.236 23.236 0 0 1 -7.844 16.692z"/><path d="m126.225 15.052a9.6 9.6 0 0 0 -4.625-3.832 19.442 19.442 0 0 0 -7.479-1.269q-1.534 0-3.277.053c-1.163.035-3.719.089-4.811.158q-1.123.073-2.072.146a.9.9 0 0 0 -.835.9v5.333a.905.905 0 0 0 .954.907q1.257-.07 2.72-.129c1.356-.052 4.1-.1 5.366-.131s2.29-.053 3.065-.053a4.56 4.56 0 0 1 3.383 1.084 4.653 4.653 0 0 1 1.057 3.356v.053h-6.66a21.725 21.725 0 0 0 -6.819.978 9.576 9.576 0 0 0 -4.6 3.012 8.041 8.041 0 0 0 -1.639 5.207 9.143 9.143 0 0 0 1.321 5 8.57 8.57 0 0 0 3.674 3.2 12.685 12.685 0 0 0 5.471 1.11 10.75 10.75 0 0 0 5.1-1.11 8.093 8.093 0 0 0 1.2-.8.307.307 0 0 0 .11-.289l-.678-4.125a.262.262 0 0 0 -.373-.2 6.745 6.745 0 0 1 -2.826.654 4.786 4.786 0 0 1 -3.409-1.084 3.646 3.646 0 0 1 -1.19-2.828 3.772 3.772 0 0 1 1.19-2.933 4.884 4.884 0 0 1 3.409-1.084h6.169a.545.545 0 0 1 .544.544v11.607a.906.906 0 0 0 .906.906h6.328a.906.906 0 0 0 .906-.906v-16.854a12.334 12.334 0 0 0 -1.58-6.581z"/></g></svg>